<?xml version="1.0" encoding="UTF-8" standalone="no"?>
<svg width="187px" height="52px" viewBox="0 0 187 52" version="1.1" xmlns="http://www.w3.org/2000/svg" xmlns:xlink="http://www.w3.org/1999/xlink" xmlns:sketch="http://www.bohemiancoding.com/sketch/ns">
    <title>producer-network-logo</title>
    <description>Created with Sketch (http://www.bohemiancoding.com/sketch)</description>
    <defs></defs>
    <g id="Page-1" stroke="none" stroke-width="1" fill="none" fill-rule="evenodd" sketch:type="MSPage">
        <g id="Logo" sketch:type="MSLayerGroup" transform="translate(6.000000, 6.000000)" fill="#cfcfcf">
            <g id="Group" sketch:type="MSShapeGroup">
                <g transform="translate(47.000000, 0.000000)" id="Shape">
                    <path d="M4.477,17.204 L0.039,17.204 L0.039,0.103 L7.112,0.103 C8.888,0.12 10.32,0.605 11.404,1.561 C12.489,2.516 13.032,3.915 13.032,5.758 C13.032,7.628 12.541,9.058 11.558,10.044 C10.577,11.031 9.146,11.525 7.268,11.525 L4.476,11.525 L4.476,17.204 L4.477,17.204 Z M5.96,7.933 C6.813,7.952 7.43,7.788 7.814,7.448 C8.198,7.105 8.39,6.56 8.39,5.808 C8.39,5.109 8.19,4.583 7.789,4.235 C7.388,3.883 6.787,3.71 5.985,3.71 L4.477,3.71 L4.477,7.934 L5.96,7.934 L5.96,7.933 Z"></path>
                    <path d="M23.993,10.205 L29.349,17.204 L23.839,17.204 L19.586,10.637 L19.586,17.204 L15.148,17.204 L15.148,0.103 L22.068,0.103 C23.742,0.12 25.101,0.594 26.144,1.525 C27.186,2.458 27.707,3.796 27.707,5.54 C27.707,6.737 27.378,7.749 26.721,8.578 C26.063,9.406 25.154,9.957 23.992,10.231 L23.992,10.205 L23.993,10.205 Z M20.046,7.798 C20.2,7.798 20.353,7.79 20.506,7.772 C21.172,7.72 21.777,7.562 22.323,7.297 C22.868,7.032 23.141,6.49 23.141,5.669 C23.141,4.896 22.881,4.369 22.36,4.095 C21.84,3.82 21.265,3.649 20.633,3.578 C20.445,3.578 20.266,3.574 20.095,3.566 C19.925,3.557 19.754,3.553 19.584,3.553 L19.584,7.771 C19.739,7.791 19.892,7.798 20.046,7.798 L20.046,7.798 Z"></path>
                    <path d="M29.683,8.708 C29.683,6.122 30.585,3.956 32.39,2.209 C34.195,0.463 36.45,-0.41 39.152,-0.41 C41.854,-0.41 44.108,0.463 45.914,2.209 C47.719,3.956 48.621,6.131 48.621,8.733 C48.621,11.335 47.719,13.503 45.914,15.232 C44.108,16.961 41.855,17.826 39.152,17.826 C36.449,17.826 34.195,16.961 32.39,15.232 C30.585,13.503 29.683,11.336 29.683,8.733 L29.683,8.708 L29.683,8.708 Z M34.325,8.706 C34.325,10.041 34.8,11.178 35.75,12.119 C36.7,13.059 37.833,13.53 39.151,13.53 C40.485,13.53 41.624,13.059 42.566,12.119 C43.507,11.178 43.977,10.05 43.977,8.732 C43.977,7.398 43.507,6.261 42.566,5.32 C41.624,4.381 40.485,3.911 39.151,3.911 C37.817,3.911 36.678,4.381 35.737,5.32 C34.795,6.261 34.324,7.398 34.324,8.732 L34.324,8.706 L34.325,8.706 Z"></path>
                    <path d="M51.188,0.103 L57.751,0.103 C60.025,0.12 62,0.978 63.675,2.678 C65.35,4.379 66.188,6.383 66.188,8.691 C66.188,10.981 65.35,12.973 63.675,14.666 C62,16.357 60.026,17.204 57.751,17.204 L51.188,17.204 L51.188,0.103 L51.188,0.103 Z M56.65,13.44 C58.101,13.458 59.276,13.04 60.173,12.184 C61.069,11.328 61.519,10.165 61.519,8.695 C61.519,8.045 61.412,7.43 61.198,6.848 C60.985,6.266 60.681,5.762 60.289,5.335 C59.674,4.628 58.961,4.21 58.148,4.081 C57.337,3.951 56.496,3.888 55.625,3.888 L55.625,13.44 L56.65,13.44 L56.65,13.44 Z"></path>
                    <path d="M73.195,9.363 C73.195,10.201 73.213,10.795 73.248,11.146 C73.281,11.497 73.359,11.799 73.478,12.056 C73.495,12.107 73.521,12.167 73.554,12.235 C73.589,12.303 73.632,12.372 73.683,12.441 C73.94,12.869 74.282,13.193 74.709,13.416 C75.136,13.639 75.615,13.75 76.146,13.75 C76.727,13.75 77.251,13.625 77.722,13.377 C78.193,13.129 78.539,12.792 78.762,12.363 C78.795,12.296 78.83,12.231 78.864,12.172 C78.898,12.111 78.924,12.057 78.942,12.005 C79.062,11.732 79.138,11.415 79.171,11.056 C79.206,10.697 79.224,10.142 79.224,9.389 L79.224,0.104 L83.661,0.104 L83.661,9.954 C83.661,11.151 83.558,12.121 83.353,12.865 C83.148,13.608 82.789,14.305 82.276,14.956 C82.224,15.008 82.177,15.059 82.134,15.11 C82.092,15.162 82.044,15.212 81.993,15.263 C81.274,16.068 80.42,16.665 79.429,17.06 C78.437,17.453 77.299,17.65 76.017,17.65 C74.769,17.65 73.602,17.421 72.516,16.969 C71.429,16.517 70.587,15.896 69.99,15.11 C69.545,14.511 69.228,13.827 69.041,13.057 C68.853,12.287 68.759,11.262 68.759,9.979 L68.759,0.104 L73.196,0.104 L73.196,9.363 L73.195,9.363 Z"></path>
                    <path d="M99.3,0.592 L99.3,5.914 C98.786,5.313 98.218,4.856 97.594,4.54 C96.969,4.223 96.289,4.065 95.555,4.065 C94.203,4.065 93.083,4.493 92.194,5.348 C91.305,6.203 90.861,7.29 90.861,8.608 C90.861,10.063 91.293,11.222 92.156,12.087 C93.02,12.951 94.178,13.384 95.632,13.384 C96.282,13.384 96.915,13.23 97.53,12.922 C98.145,12.613 98.735,12.168 99.301,11.586 L99.301,16.824 C99.198,16.875 99.091,16.918 98.98,16.952 C98.869,16.986 98.762,17.02 98.66,17.056 C98.13,17.226 97.596,17.371 97.056,17.492 C96.517,17.611 95.957,17.672 95.376,17.672 C92.793,17.672 90.622,16.816 88.86,15.103 C87.098,13.391 86.217,11.277 86.217,8.76 C86.217,6.192 87.107,4.047 88.885,2.327 C90.664,0.606 92.879,-0.253 95.529,-0.253 C96.077,-0.253 96.653,-0.181 97.26,-0.036 C97.867,0.11 98.547,0.327 99.3,0.618 L99.3,0.592 L99.3,0.592 Z"></path>
                    <path d="M106.312,3.866 L106.312,6.717 L111.314,6.717 L111.314,10.48 L106.312,10.48 L106.312,13.43 L111.595,13.43 L111.595,17.204 L101.873,17.204 L101.873,0.103 L111.595,0.103 L111.595,3.866 L106.312,3.866 L106.312,3.866 Z"></path>
                    <path d="M123.007,10.205 L128.361,17.204 L122.851,17.204 L118.599,10.637 L118.599,17.204 L114.161,17.204 L114.161,0.103 L121.082,0.103 C122.756,0.12 124.114,0.594 125.158,1.525 C126.199,2.458 126.72,3.796 126.72,5.54 C126.72,6.737 126.39,7.749 125.734,8.578 C125.078,9.406 124.168,9.957 123.006,10.231 L123.006,10.205 L123.007,10.205 Z M119.061,7.798 C119.213,7.798 119.367,7.79 119.52,7.772 C120.185,7.72 120.791,7.562 121.337,7.297 C121.883,7.032 122.155,6.49 122.155,5.669 C122.155,4.896 121.894,4.369 121.375,4.095 C120.855,3.82 120.279,3.649 119.647,3.578 C119.46,3.578 119.281,3.574 119.109,3.566 C118.94,3.557 118.769,3.553 118.599,3.553 L118.599,7.771 C118.752,7.791 118.905,7.798 119.061,7.798 L119.061,7.798 Z"></path>
                    <path d="M0.039,22.903 L4.523,22.903 L12.798,33.369 L12.798,22.903 L17.282,22.903 L17.282,40.004 L12.798,40.004 L4.523,29.539 L4.523,40.004 L0.039,40.004 L0.039,22.903 L0.039,22.903 Z"></path>
                    <path d="M25.793,26.666 L25.793,29.517 L30.847,29.517 L30.847,33.28 L25.793,33.28 L25.793,36.23 L31.132,36.23 L31.132,40.004 L21.309,40.004 L21.309,22.903 L31.132,22.903 L31.132,26.666 L25.793,26.666 L25.793,26.666 Z"></path>
                    <path d="M41.425,40.004 L36.915,40.004 L36.915,26.666 L33.26,26.666 L33.26,22.903 L45.131,22.903 L45.131,26.666 L41.425,26.666 L41.425,40.004 L41.425,40.004 Z"></path>
                    <path d="M53.939,33.95 L57.593,22.893 L61.171,22.893 L64.566,33.95 L67.832,22.893 L72.523,22.893 L67.002,40.003 L62.415,40.003 L59.278,30.102 L55.96,40.003 L51.398,40.003 L46.241,22.893 L50.932,22.893 L53.939,33.95 L53.939,33.95 Z"></path>
                    <path d="M73.455,31.51 C73.455,28.924 74.366,26.757 76.188,25.011 C78.011,23.264 80.287,22.392 83.015,22.392 C85.743,22.392 88.019,23.264 89.841,25.011 C91.664,26.757 92.575,28.932 92.575,31.534 C92.575,34.136 91.664,36.304 89.841,38.033 C88.019,39.762 85.743,40.628 83.015,40.628 C80.287,40.628 78.011,39.762 76.188,38.033 C74.366,36.304 73.455,34.137 73.455,31.534 L73.455,31.51 L73.455,31.51 Z M78.146,31.507 C78.146,32.841 78.626,33.979 79.584,34.919 C80.543,35.859 81.686,36.33 83.016,36.33 C84.362,36.33 85.51,35.859 86.46,34.919 C87.409,33.979 87.885,32.85 87.885,31.533 C87.885,30.198 87.409,29.061 86.46,28.121 C85.51,27.182 84.361,26.711 83.016,26.711 C81.668,26.711 80.521,27.182 79.572,28.121 C78.622,29.061 78.147,30.198 78.147,31.533 L78.147,31.507 L78.146,31.507 Z"></path>
                    <path d="M104.771,33.006 L110.197,40.004 L104.615,40.004 L100.303,33.437 L100.303,40.004 L95.82,40.004 L95.82,22.903 L102.828,22.903 C104.523,22.92 105.9,23.394 106.955,24.325 C108.01,25.258 108.539,26.596 108.539,28.341 C108.539,29.537 108.205,30.549 107.538,31.379 C106.871,32.207 105.949,32.758 104.771,33.032 L104.771,33.006 L104.771,33.006 Z M100.773,30.6 C100.929,30.6 101.085,30.591 101.24,30.574 C101.919,30.522 102.535,30.363 103.092,30.099 C103.647,29.834 103.924,29.291 103.924,28.47 C103.924,27.697 103.66,27.17 103.131,26.896 C102.601,26.621 102.015,26.45 101.371,26.38 C101.18,26.38 100.999,26.376 100.824,26.367 C100.65,26.358 100.476,26.354 100.303,26.354 L100.303,30.573 C100.461,30.591 100.616,30.6 100.773,30.6 L100.773,30.6 Z"></path>
                    <path d="M122.457,22.903 L128.004,22.903 L121.135,31.004 L128.627,40.004 L122.82,40.004 L116.963,32.591 L116.963,40.004 L112.479,40.004 L112.479,22.903 L116.963,22.903 L116.963,29.956 L122.457,22.903 L122.457,22.903 Z"></path>
                </g>
                <path d="M-0.308,-0.151 L-0.308,40.917 L40.763,40.917 L40.763,-0.151 L-0.308,-0.151 L-0.308,-0.151 Z M18.78,26.263 L12.325,32.718 L11.279,31.674 L5.759,37.194 C5.091,37.862 4.011,37.862 3.343,37.194 L3.341,37.194 C2.673,36.526 2.673,35.443 3.341,34.775 L8.863,29.255 L7.822,28.206 L14.201,21.83 L18.78,21.83 L18.78,26.263 L18.78,26.263 Z M18.78,18.937 L14.201,18.937 L7.822,12.558 L8.863,11.511 L3.341,5.99 C2.673,5.322 2.673,4.239 3.341,3.571 L3.341,3.571 L3.343,3.571 C4.011,2.903 5.091,2.903 5.759,3.571 L11.279,9.091 L12.325,8.047 L18.78,14.503 L18.78,18.937 L18.78,18.937 Z M37.111,37.193 C36.443,37.861 35.361,37.861 34.693,37.193 L29.173,31.673 L28.127,32.717 L21.672,26.262 L21.672,21.829 L26.251,21.829 L32.63,28.205 L31.592,29.254 L37.111,34.774 C37.78,35.442 37.78,36.525 37.111,37.193 L37.111,37.193 Z M37.111,5.99 L31.592,11.511 L32.63,12.558 L26.251,18.937 L21.672,18.937 L21.672,14.502 L28.127,8.046 L29.173,9.09 L34.693,3.57 C35.361,2.902 36.443,2.902 37.111,3.57 L37.111,3.57 C37.78,4.239 37.78,5.322 37.111,5.99 L37.111,5.99 Z" id="Shape"></path>
            </g>
        </g>
    </g>
</svg>